<svg width="273" height="283" viewBox="0 0 273 283" fill="none" xmlns="http://www.w3.org/2000/svg">
<g clip-path="url(#clip0_273:45)">
<path d="M69.5 406.5C181.614 406.5 272.5 315.614 272.5 203.5C272.5 91.3862 181.614 0.5 69.5 0.5C-42.6138 0.5 -133.5 91.3862 -133.5 203.5C-133.5 315.614 -42.6138 406.5 69.5 406.5Z" stroke="#4D55BC"/>
<path opacity="0.9" d="M56.5 406.5C161.434 406.5 246.5 321.434 246.5 216.5C246.5 111.566 161.434 26.5 56.5 26.5C-48.4341 26.5 -133.5 111.566 -133.5 216.5C-133.5 321.434 -48.4341 406.5 56.5 406.5Z" stroke="#4D55BC"/>
<path opacity="0.8" d="M39.5 418.5C139.464 418.5 220.5 337.464 220.5 237.5C220.5 137.536 139.464 56.5 39.5 56.5C-60.4635 56.5 -141.5 137.536 -141.5 237.5C-141.5 337.464 -60.4635 418.5 39.5 418.5Z" stroke="#4D55BC"/>
<path opacity="0.7" d="M27 423.5C119.508 423.5 194.5 348.508 194.5 256C194.5 163.492 119.508 88.5 27 88.5C-65.5077 88.5 -140.5 163.492 -140.5 256C-140.5 348.508 -65.5077 423.5 27 423.5Z" stroke="#4D55BC"/>
<path opacity="0.6" d="M10 424.5C95.8803 424.5 165.5 354.88 165.5 269C165.5 183.12 95.8803 113.5 10 113.5C-75.8803 113.5 -145.5 183.12 -145.5 269C-145.5 354.88 -75.8803 424.5 10 424.5Z" stroke="#4D55BC"/>
<path opacity="0.5" d="M-7.5 424.5C68.7153 424.5 130.5 362.715 130.5 286.5C130.5 210.285 68.7153 148.5 -7.5 148.5C-83.7153 148.5 -145.5 210.285 -145.5 286.5C-145.5 362.715 -83.7153 424.5 -7.5 424.5Z" stroke="#4D55BC"/>
<path opacity="0.4" d="M-24 424.5C43.1026 424.5 97.5 370.103 97.5 303C97.5 235.897 43.1026 181.5 -24 181.5C-91.1026 181.5 -145.5 235.897 -145.5 303C-145.5 370.103 -91.1026 424.5 -24 424.5Z" stroke="#4D55BC"/>
</g>
<defs>
<clipPath id="clip0_273:45">
<rect width="273" height="283" fill="white"/>
</clipPath>
</defs>
</svg>
